<svg width="114" height="113" viewBox="0 0 114 113" fill="none" xmlns="http://www.w3.org/2000/svg">
<g id="&#230;&#128;&#167;&#229;&#136;&#171;&#231;&#148;&#183;-&#230;&#156;&#170;&#233;&#128;&#137;&#228;&#184;&#173;">
<ellipse id="Ellipse 2" cx="57" cy="56.5" rx="57" ry="56.5" fill="#DCDCDC"/>
<path id="path" fill-rule="evenodd" clip-rule="evenodd" d="M86.586 37.2365C86.586 37.2365 89.3467 35.6319 86.3741 32.8844C86.3741 32.8844 83.7222 32.1971 83.1895 32.4275C83.1895 32.4275 81.812 27.3862 79.0515 26.1264C79.0515 26.1264 76.7146 25.5149 76.1822 27.9593C76.1822 27.9593 69.9755 24.5523 65.4873 23.6921C65.4873 23.6921 54.0261 21.3155 50.9485 15.5614C50.9485 15.5614 50.2837 14.1019 48.1105 14.9595C48.1105 14.9595 46.0368 16.734 46.6725 23.8351C46.6725 23.8351 46.8497 25.2873 38.0027 19.1784C38.0027 19.1784 35.8105 18.5679 35.1749 20.3994C35.1749 20.3994 34.0454 24.7511 35.4574 27.9592C35.4574 27.9592 30.363 28.9508 28.1655 31.319C28.1655 31.319 25.6924 34.7557 29.8638 35.2899C29.8638 35.2899 23.6413 39.1076 22.5755 49.8731C22.5755 49.8731 22.451 57.4264 24.6954 65.8056C24.2169 67.174 24.0246 68.6735 24.1781 70.2057C24.6164 74.5798 27.7488 78.0492 31.8043 78.6633C33.0838 82.8637 35.2677 86.7121 38.2494 89.9293C43.2578 95.3333 49.9169 98.3094 57 98.3094C64.083 98.3094 70.7421 95.3333 75.7505 89.9293C78.7961 86.6432 81.0076 82.698 82.275 78.3926C86.1864 77.852 89.3072 74.6299 89.9361 70.4154C90.2412 68.3707 89.9215 66.3491 89.1054 64.5996C90.5008 60.1775 91.7103 54.7153 91.3668 49.7206C91.3668 49.7206 90.5128 41.8197 86.586 37.2365Z" fill="#FBFAFA"/>
</g>
</svg>
