<svg width="17" height="12" viewBox="0 0 17 12" fill="none" xmlns="http://www.w3.org/2000/svg">
<g id="Group 1000003208">
<path id="Vector" d="M0.00053402 5.97878C0.000534043 5.53038 0.342066 5.23144 0.854366 5.23144L15.8952 5.23145C16.4075 5.23145 16.749 5.53038 16.749 5.97878C16.749 6.42718 16.4075 6.72612 15.8952 6.72612L0.854366 6.72612C0.342066 6.72612 0.000533998 6.42718 0.00053402 5.97878Z" fill="black"/>
<path id="Vector_2" d="M7.6949e-05 5.9787C7.69602e-05 5.7545 0.0854599 5.60503 0.256226 5.45556L6.23306 0.224201C6.57459 -0.0747338 7.08689 -0.0747337 7.42842 0.224201C7.76995 0.523136 7.76995 0.971539 7.42842 1.27047L2.04927 5.9787L7.42842 10.6869C7.76995 10.9859 7.76995 11.4343 7.42842 11.7332C7.08689 12.0321 6.57459 12.0321 6.23305 11.7332L0.256226 6.50183C0.0854599 6.35237 7.69378e-05 6.2029 7.6949e-05 5.9787Z" fill="black"/>
</g>
</svg>
