<svg width="33" height="32" viewBox="0 0 33 32" fill="none" xmlns="http://www.w3.org/2000/svg">
<g id="Frame">
<path id="Vector" d="M27.7698 28H5.76984C4.11984 28 2.76984 26.65 2.76984 25V7C2.76984 5.35 4.11984 4 5.76984 4H27.7698C29.4198 4 30.7698 5.35 30.7698 7V25C30.7698 26.65 29.4198 28 27.7698 28ZM5.76984 6C5.21984 6 4.76984 6.45 4.76984 7V25C4.76984 25.55 5.21984 26 5.76984 26H27.7698C28.3198 26 28.7698 25.55 28.7698 25V7C28.7698 6.45 28.3198 6 27.7698 6H5.76984ZM9.76984 18C9.21984 18 8.76984 17.55 8.76984 17V15C8.76984 14.45 9.21984 14 9.76984 14C10.3198 14 10.7698 14.45 10.7698 15V17C10.7698 17.55 10.3198 18 9.76984 18ZM16.7698 18C16.2198 18 15.7698 17.55 15.7698 17V15C15.7698 14.45 16.2198 14 16.7698 14C17.3198 14 17.7698 14.45 17.7698 15V17C17.7698 17.55 17.3198 18 16.7698 18ZM23.7698 18C23.2198 18 22.7698 17.55 22.7698 17V15C22.7698 14.45 23.2198 14 23.7698 14C24.3198 14 24.7698 14.45 24.7698 15V17C24.7698 17.55 24.3198 18 23.7698 18Z" fill="#9B9B9B"/>
</g>
</svg>
