<svg width="44" height="44" viewBox="0 0 44 44" fill="none" xmlns="http://www.w3.org/2000/svg">
<g id="Frame">
<path id="Vector" d="M22 42.2582C20.4417 42.2582 18.975 42.0749 17.5084 41.7082C15.7667 41.3416 14.1167 40.6999 12.5584 39.8749C12.1917 39.7832 10.2667 39.8749 5.68337 41.1582C4.85837 41.4332 4.03337 41.1582 3.3917 40.5166C2.8417 39.8749 2.5667 39.0499 2.8417 38.2249C4.2167 33.9166 4.40003 32.0832 4.2167 31.6249C3.30003 29.9749 2.65837 28.1416 2.20003 26.3082C1.83337 24.8416 1.7417 23.3749 1.7417 21.9082C1.7417 10.7249 10.8167 1.6499 21.9084 1.6499H23.0084C33.3667 2.38324 41.525 10.6332 42.1667 20.8999C42.8084 32.0832 34.1917 41.6166 23.1 42.1666C22.7334 42.1666 22.3667 42.2582 22 42.2582ZM12.1 37.1249C12.65 37.1249 13.2917 37.2166 13.75 37.4916C15.125 38.2249 16.5 38.7749 17.9667 39.0499C19.25 39.3249 20.5334 39.5082 21.9084 39.5082C31.5334 39.5082 39.325 31.8082 39.4167 22.1832V21.0832C38.8667 12.1916 31.8084 5.13324 22.9167 4.58324C13.2917 3.94157 5.13337 11.3666 4.58337 20.8999V21.9999C4.58337 24.9332 5.3167 27.8666 6.78337 30.4332C7.05837 30.9832 7.70003 32.0832 5.77503 38.3166C7.7917 37.5832 9.9917 37.2166 12.1 37.1249Z" fill="url(#paint0_linear_572_21449)"/>
<path id="Vector_2" d="M29.3334 20.4417H14.6667C13.9334 20.4417 13.2917 19.8 13.2917 19.0667C13.2917 18.3333 13.9334 17.6917 14.6667 17.6917H29.3334C30.0667 17.6917 30.7084 18.3333 30.7084 19.0667C30.7084 19.8 30.0667 20.4417 29.3334 20.4417ZM29.3334 26.3083H14.6667C13.9334 26.3083 13.2917 25.6666 13.2917 24.9333C13.2917 24.2 13.9334 23.5583 14.6667 23.5583H29.3334C30.0667 23.5583 30.7084 24.2 30.7084 24.9333C30.7084 25.6666 30.0667 26.3083 29.3334 26.3083Z" fill="url(#paint1_linear_572_21449)"/>
<path id="Vector_3" d="M23.4668 30.7083C22.7334 30.7083 22.0918 30.0667 22.0918 29.3333V29.0583L25.0251 14.3917C25.2084 13.6583 25.9418 13.2 26.6751 13.2917C27.4084 13.3833 27.8668 14.2083 27.7751 14.9417L24.8418 29.6083C24.6584 30.25 24.1084 30.7083 23.4668 30.7083ZM17.6001 30.7083C16.8668 30.7083 16.2251 30.0667 16.2251 29.3333V29.0583L19.1584 14.3917C19.3418 13.6583 20.0751 13.2 20.8084 13.2917C21.5418 13.3833 22.0001 14.2083 21.9084 14.9417L18.9751 29.6083C18.7918 30.25 18.2418 30.7083 17.6001 30.7083Z" fill="url(#paint2_linear_572_21449)"/>
</g>
<defs>
<linearGradient id="paint0_linear_572_21449" x1="1.7417" y1="-32.6454" x2="75.8565" y2="-19.597" gradientUnits="userSpaceOnUse">
<stop stop-color="#F9D423"/>
<stop offset="1" stop-color="#F83600"/>
</linearGradient>
<linearGradient id="paint1_linear_572_21449" x1="13.2917" y1="10.4146" x2="42.4641" y2="20.8341" gradientUnits="userSpaceOnUse">
<stop stop-color="#F9D423"/>
<stop offset="1" stop-color="#F83600"/>
</linearGradient>
<linearGradient id="paint2_linear_572_21449" x1="16.2251" y1="-1.43882" x2="37.7649" y2="1.08618" gradientUnits="userSpaceOnUse">
<stop stop-color="#F9D423"/>
<stop offset="1" stop-color="#F83600"/>
</linearGradient>
</defs>
</svg>
