<svg width="22" height="22" viewBox="0 0 22 22" fill="none" xmlns="http://www.w3.org/2000/svg">
<g id="&#240;&#159;&#166;&#134; icon &#34;purchase tag&#34;">
<path id="Vector" d="M11.8328 1.06762C11.4136 0.648449 10.8447 0.412598 10.2523 0.412598H2.23556C1.00153 0.412598 0 1.41413 0 2.64816V10.6649C0 11.2573 0.235851 11.8262 0.655019 12.2454L9.59726 21.1877C10.4702 22.0606 11.8854 22.0606 12.7583 21.1877L20.7751 13.1709C21.648 12.2979 21.648 10.8828 20.7751 10.0099L11.8328 1.06762ZM5.5889 8.23706C4.35487 8.23706 3.35334 7.23553 3.35334 6.0015C3.35334 4.76747 4.35487 3.76594 5.5889 3.76594C6.82293 3.76594 7.82446 4.76747 7.82446 6.0015C7.82446 7.23553 6.82293 8.23706 5.5889 8.23706Z" fill="black"/>
</g>
</svg>
