<svg xmlns="http://www.w3.org/2000/svg" xmlns:xlink="http://www.w3.org/1999/xlink" viewBox="0 0 889.15 232.93"><defs><style>.cls-1{fill:url(#未命名的渐变_34);}.cls-2{fill:#06e2f4;}</style><linearGradient id="未命名的渐变_34" x1="139.36" y1="75.15" x2="288.44" y2="183.02" gradientUnits="userSpaceOnUse"><stop offset="0" stop-color="#00d8ff"/><stop offset="0.95" stop-color="#b9fe0f"/></linearGradient></defs><g id="图层_2" data-name="图层 2"><g id="图层_1-2" data-name="图层 1"><path class="cls-1" d="M303.74,26.8A158.41,158.41,0,0,0,292.66,0L265.18,11.41,27.48,110.08,0,121.48a157.22,157.22,0,0,0,11.18,26.76A159.08,159.08,0,0,0,303.74,26.8Zm-152,176.54a129.43,129.43,0,0,1-113.14-66.5l237.6-98.63A129.52,129.52,0,0,1,151.79,203.34Z"/><path class="cls-2" d="M113.92,157.68c-4.87,9.76-9.89,9.78-14.84,7.31s-8-6.5-3.09-16.26,15.05-22.2,20-19.65C120.28,131.33,118.79,147.92,113.92,157.68Z"/><path class="cls-2" d="M170.08,161.67c-1.2,10.84-5.9,12.59-11.4,12s-9.71-3.35-8.51-14.19,6.45-26,11.94-25.34C167,134.74,171.29,150.83,170.08,161.67Z"/><path class="cls-2" d="M219.1,139.87c5.42,9.47,2.64,13.66-2.16,16.41s-9.82,3-15.23-6.46-10.12-24.84-5.28-27.51C200.71,120,213.69,130.41,219.1,139.87Z"/><path class="cls-2" d="M250.58,93.14c8.84,6.39,8,11.34,4.81,15.83s-7.7,6.8-16.54.41-19.48-18.44-16.17-22.87C225.61,82.6,241.74,86.75,250.58,93.14Z"/><path d="M509.2,128.32c0-9.89-2.47-17.44-7.32-22.44s-12-7.5-21.2-7.5a33.14,33.14,0,0,0-7.72.91,37.6,37.6,0,0,0-7.27,2.59,40.63,40.63,0,0,0-6.57,3.93,35.28,35.28,0,0,0-5.48,5l-2.42,2.71-1.79-3.16a21.17,21.17,0,0,0-9.35-8.94,33.53,33.53,0,0,0-14.84-3,34.47,34.47,0,0,0-12.12,2.2,39.52,39.52,0,0,0-10.67,6l-4.22,3.36V100H366v16.43h12v43.75H365.84v19.43H411.5V160.22H398.39V125l.56-.71a24.12,24.12,0,0,1,9.11-7.49,22.26,22.26,0,0,1,9.25-1.94,17.36,17.36,0,0,1,6.46,1.35,15.65,15.65,0,0,1,5.16,3.55,16.24,16.24,0,0,1,3.4,5.45,19.55,19.55,0,0,1,1.2,6.94v47.46h32.15V160.22H453.83V128.59c0-.52,0-1-.07-1.54l-.09-1,.61-.8a27.51,27.51,0,0,1,8.63-8,20,20,0,0,1,9.56-2.4c5,0,9,1.61,11.91,4.79s4.27,7.38,4.27,12.65v47.31h28.29V160.22H509.2Z"/><path d="M612,137l0-.24a49.27,49.27,0,0,0-2.83-15.48A36.88,36.88,0,0,0,601.86,109a33.3,33.3,0,0,0-11.62-8.16,40.49,40.49,0,0,0-16-3,41.28,41.28,0,0,0-16.4,3.17A38.16,38.16,0,0,0,537,122.51a42.92,42.92,0,0,0-2.92,15.85,46.31,46.31,0,0,0,2.78,16.06,37,37,0,0,0,21,22,45.6,45.6,0,0,0,17.82,3.28,71.43,71.43,0,0,0,9.54-.56,42.06,42.06,0,0,0,7.55-1.74,50.61,50.61,0,0,0,7.12-3c1.84-1,3.83-2.06,5.94-3.31l-6.39-11.92c-1.22.45-2.45.89-3.66,1.31-1.95.68-4,1.28-6,1.79a57.29,57.29,0,0,1-6.44,1.23,51.42,51.42,0,0,1-7.07.46,29.94,29.94,0,0,1-7.64-1,24.21,24.21,0,0,1-7-3A22.53,22.53,0,0,1,556,154.8a19,19,0,0,1-3.41-7.18l-.07-.37L552,142h60.3c0-.44,0-.88,0-1.31C612.27,139.45,612.18,138.23,612,137Zm-59.87-6.42.89-3.29a27.2,27.2,0,0,1,2.18-5.49,17.29,17.29,0,0,1,4-4.93,18,18,0,0,1,6.08-3.41,25.9,25.9,0,0,1,8.34-1.2,22.52,22.52,0,0,1,7.88,1.23A15.56,15.56,0,0,1,587,117a15.89,15.89,0,0,1,3.38,5,28.59,28.59,0,0,1,1.73,5.54l.65,3.13Z"/><polygon points="661.05 60.34 629.37 60.34 629.37 76.78 642.01 76.78 642.01 161.59 629.37 161.59 629.37 179.13 673.69 179.13 673.69 161.59 661.05 161.59 661.05 60.34"/><path d="M761.17,110.82a40,40,0,0,0-12.94-8.67,44.47,44.47,0,0,0-33.08,0,39.19,39.19,0,0,0-21.36,21.5,41.07,41.07,0,0,0-3,15.75,42.8,42.8,0,0,0,2.94,15.9,38,38,0,0,0,21.11,21.51,46,46,0,0,0,33.66,0,38.31,38.31,0,0,0,21.19-21.59,42.65,42.65,0,0,0,2.93-15.82,41.51,41.51,0,0,0-3-15.76A39.31,39.31,0,0,0,761.17,110.82ZM752.26,149a23.23,23.23,0,0,1-4.67,7.59,21,21,0,0,1-7.12,5,22.23,22.23,0,0,1-8.8,1.75,21.68,21.68,0,0,1-8.75-1.8,22.4,22.4,0,0,1-7.15-5,23.82,23.82,0,0,1-4.84-7.58,25.38,25.38,0,0,1-1.76-9.54,26.32,26.32,0,0,1,1.76-9.81A22.78,22.78,0,0,1,715.8,122a21.28,21.28,0,0,1,7.19-4.81,21.81,21.81,0,0,1,8.73-1.58,22.16,22.16,0,0,1,8.71,1.58,20.57,20.57,0,0,1,7.14,4.83,22.65,22.65,0,0,1,4.7,7.59,27.66,27.66,0,0,1,1.67,9.77A26.7,26.7,0,0,1,752.26,149Z"/><path d="M877.55,127.63c0-9.83-2.44-17.34-7.25-22.32s-11.81-7.46-20.87-7.46a36.27,36.27,0,0,0-12.5,2.17,39.43,39.43,0,0,0-10.78,6l-4.21,3.3V99.35H789.87v16.44h11.85v43.74h-12v19.6h45.66v-19.6H822.1v-35l.57-.71a24.62,24.62,0,0,1,9.13-7.56,23.55,23.55,0,0,1,9.33-2A15.09,15.09,0,0,1,852.67,119c2.87,3.09,4.33,7.32,4.33,12.55v47.63h32.15v-19.6h-11.6Z"/></g></g></svg>