<svg width="83" height="53" viewBox="0 0 83 53" fill="none" xmlns="http://www.w3.org/2000/svg">
<g id="Group 1000003216">
<g id="Group 2947">
<path id="Vector" d="M78.4948 45.7731L78.433 45.5507L78.562 45.3594C79.9533 43.2976 80.823 40.6675 80.9454 37.3094C81.0386 34.6884 81.0708 32.5464 80.8487 30.7652C80.6277 28.9921 80.159 27.6185 79.2805 26.5128C78.4016 25.4066 77.0724 24.5184 75.0376 23.7928C72.9983 23.0655 70.2811 22.5123 66.6626 22.0587C59.4381 21.153 52.0837 21.3155 46.4504 22.7889C40.7805 24.2719 37.0677 27.0133 36.6691 31.114C36.2031 35.9325 36.6629 40.6939 38.5135 44.4261C40.3505 48.131 43.5707 50.8536 48.7323 51.623C52.7237 52.2181 57.4701 52.6708 62.0809 52.4375C66.6991 52.2038 71.1329 51.2838 74.5354 49.1734L74.7919 49.0144L75.0521 49.1672C75.5781 49.476 76.9239 50.2009 78.4315 50.5353C79.8181 50.8428 81.2307 50.7994 82.3036 49.9376C82.2159 49.8826 82.1143 49.822 81.9964 49.7517C81.9629 49.7318 81.9282 49.7111 81.892 49.6895C81.689 49.568 81.4549 49.426 81.208 49.2608C80.2227 48.6019 78.988 47.5464 78.4948 45.7731Z" stroke="#DCDCDC"/>
<path id="Vector_2" d="M64.6864 36.799C64.6812 37.1505 64.7805 37.4955 64.9716 37.7903C65.1627 38.085 65.4369 38.316 65.7594 38.4539C66.0819 38.5918 66.438 38.6304 66.7824 38.5647C67.1268 38.499 67.444 38.332 67.6934 38.085C67.9429 37.838 68.1134 37.5222 68.1832 37.1777C68.253 36.8332 68.2189 36.4757 68.0854 36.1507C67.9518 35.8257 67.7248 35.5479 67.4333 35.3527C67.1417 35.1574 66.7988 35.0536 66.4482 35.0544C65.9847 35.0544 65.5398 35.2375 65.21 35.5641C64.8803 35.8906 64.6921 36.3343 64.6864 36.799Z" fill="#E6E6E6"/>
<path id="Vector_3" d="M55.9601 36.799C55.9549 37.1503 56.0541 37.4952 56.245 37.7898C56.4358 38.0844 56.7098 38.3154 57.0321 38.4535C57.3543 38.5915 57.7102 38.6303 58.0545 38.565C58.3988 38.4997 58.7159 38.3331 58.9656 38.0866C59.2152 37.84 59.386 37.5245 59.4563 37.1804C59.5266 36.8362 59.4932 36.4788 59.3603 36.1537C59.2274 35.8286 59.0011 35.5505 58.7101 35.3548C58.4191 35.159 58.0766 35.0545 57.7262 35.0544C57.2623 35.0544 56.817 35.2374 56.4865 35.5638C56.156 35.8902 55.9669 36.3339 55.9601 36.799Z" fill="#E6E6E6"/>
<path id="Vector_4" d="M47.5726 36.799C47.5675 37.1505 47.6667 37.4955 47.8578 37.7903C48.0489 38.085 48.3231 38.316 48.6456 38.4539C48.9681 38.5918 49.3242 38.6304 49.6687 38.5647C50.0131 38.499 50.3302 38.332 50.5797 38.085C50.8291 37.838 50.9996 37.5222 51.0694 37.1777C51.1392 36.8332 51.1051 36.4757 50.9716 36.1507C50.8381 35.8257 50.611 35.5479 50.3195 35.3527C50.0279 35.1574 49.685 35.0536 49.3344 35.0544C48.8709 35.0544 48.4261 35.2375 48.0963 35.5641C47.7665 35.8906 47.5784 36.3343 47.5726 36.799Z" fill="#E6E6E6"/>
</g>
<path id="Vector_5" d="M66.7556 13.8402C65.5267 1.64501 43.909 -1.7306 23.2008 0.773528C2.49268 3.27765 1.68601 8.05425 2.21657 22.4502C2.39523 27.1772 3.6675 30.9223 5.7356 33.8787C4.46334 38.2913 -0.641967 39.2124 0.0672534 39.9074C3.71622 43.4761 10.1425 40.1997 11.6909 39.3227C21.6849 45.3017 37.526 44.4303 48.9547 42.7866C64.1461 40.6024 68.0983 27.2323 66.7556 13.8402Z" fill="#E6E6E6"/>
</g>
</svg>
