<svg width="372" height="372" viewBox="0 0 372 372" fill="none" xmlns="http://www.w3.org/2000/svg">
<mask id="mask0_536_3084" style="mask-type:alpha" maskUnits="userSpaceOnUse" x="54" y="54" width="264" height="264">
<path d="M278.888 278.885C330.187 227.586 330.187 144.414 278.888 93.1146C227.588 41.8154 144.416 41.8154 93.1169 93.1146C41.8177 144.414 41.8177 227.586 93.1169 278.885C144.416 330.185 227.588 330.185 278.888 278.885Z" fill="#ACDBCF"/>
</mask>
<g mask="url(#mask0_536_3084)">
<path d="M351 21H21V351H351V21Z" fill="#98D5CC"/>
<path d="M278.888 278.885C330.187 227.586 330.187 144.414 278.888 93.1146C227.588 41.8154 144.416 41.8154 93.1169 93.1146C41.8177 144.414 41.8177 227.586 93.1169 278.885C144.416 330.185 227.588 330.185 278.888 278.885Z" fill="#ECECEC"/>
<path d="M212.347 240.595C212.347 257.306 200.718 279.264 186.383 279.264C172.048 279.264 160.418 257.306 160.418 240.595C160.418 223.884 172.048 210.334 186.383 210.334C200.718 210.334 212.347 223.884 212.347 240.595Z" fill="white"/>
<path d="M152.954 284.659C152.254 284.659 151.568 284.712 150.888 284.797C150.928 284.408 150.947 284.019 150.947 283.616C150.947 276.805 145.423 271.281 138.619 271.281C133.629 271.281 129.332 274.244 127.392 278.508C125.452 277.452 123.221 276.851 120.851 276.851C117.697 276.851 114.793 277.92 112.476 279.709C110.232 275.201 105.572 272.099 100.193 272.099C99.507 272.099 98.8338 272.152 98.1738 272.251C99.4476 270.31 100.193 267.987 100.193 265.492C100.193 258.681 94.6692 253.164 87.858 253.164C87.726 253.164 87.5874 253.164 87.4554 253.17C87.5478 252.57 87.594 251.956 87.594 251.329C87.594 244.518 82.0698 239 75.2586 239C69.3714 239 64.4478 243.125 63.2268 248.649C61.1016 246.907 58.3824 245.864 55.419 245.864C51.3864 245.864 47.8092 247.798 45.5586 250.794C44.7798 244.729 39.6054 240.043 33.3288 240.043C26.5176 240.043 20.9934 245.567 20.9934 252.378V314.946H147.001C148.835 315.699 168.675 309.072 168.675 300.387C168.675 291.701 161.633 284.659 152.947 284.659H152.954Z" fill="#DADADA"/>
<path d="M219.046 284.659C219.746 284.659 220.432 284.712 221.112 284.797C221.072 284.408 221.053 284.019 221.053 283.616C221.053 276.805 226.577 271.281 233.381 271.281C238.371 271.281 242.668 274.244 244.608 278.508C246.555 277.452 248.779 276.851 251.149 276.851C254.303 276.851 257.207 277.92 259.524 279.709C261.768 275.201 266.428 272.099 271.807 272.099C272.493 272.099 273.166 272.152 273.826 272.251C272.552 270.31 271.807 267.987 271.807 265.492C271.807 258.681 277.331 253.164 284.135 253.164C284.274 253.164 284.406 253.164 284.538 253.17C284.446 252.57 284.399 251.956 284.399 251.329C284.399 244.518 289.924 239 296.735 239C302.622 239 307.546 243.125 308.767 248.649C310.892 246.907 313.611 245.864 316.568 245.864C320.6 245.864 324.184 247.798 326.428 250.794C327.207 244.729 332.381 240.043 338.658 240.043C345.469 240.043 350.993 245.567 350.993 252.378V314.946H224.986C223.151 315.699 203.312 309.072 203.312 300.387C203.312 291.701 210.354 284.659 219.04 284.659H219.046Z" fill="#DADADA"/>
<path d="M207.543 235.408H165.289V351.001H207.543V235.408Z" fill="white"/>
<path d="M96.5502 141.655V139.814H98.3916C99.3354 139.814 100.101 139.048 100.101 138.111C100.101 137.174 99.3354 136.402 98.3916 136.402H96.5502V134.56C96.5502 133.616 95.7845 132.857 94.8473 132.857C93.9101 132.857 93.138 133.623 93.138 134.56V136.402H91.2966C90.3528 136.402 89.5938 137.167 89.5938 138.111C89.5938 139.055 90.3594 139.814 91.2966 139.814H93.138V141.655C93.138 142.599 93.9035 143.365 94.8473 143.365C95.7911 143.365 96.5502 142.599 96.5502 141.655Z" fill="#FFFDF2"/>
<path d="M307.704 58.1914V56.35H309.545C310.489 56.35 311.255 55.5844 311.255 54.6472C311.255 53.71 310.489 52.9378 309.545 52.9378H307.704V51.0964C307.704 50.1526 306.938 49.3936 306.001 49.3936C305.064 49.3936 304.292 50.1592 304.292 51.0964V52.9378H302.45C301.507 52.9378 300.748 53.7034 300.748 54.6472C300.748 55.591 301.513 56.35 302.45 56.35H304.292V58.1914C304.292 59.1352 305.057 59.9008 306.001 59.9008C306.945 59.9008 307.704 59.1352 307.704 58.1914Z" fill="#FFFDF2"/>
<path d="M243.882 95.5342H242.661V94.3132C242.661 93.6862 242.153 93.1846 241.533 93.1846C240.912 93.1846 240.404 93.6928 240.404 94.3132V95.5342H239.183C238.556 95.5342 238.054 96.0424 238.054 96.6628C238.054 97.2832 238.563 97.7914 239.183 97.7914H240.404V99.0124C240.404 99.6394 240.912 100.141 241.533 100.141C242.153 100.141 242.661 99.6328 242.661 99.0124V97.7914H243.882C244.509 97.7914 245.011 97.2832 245.011 96.6628C245.011 96.0424 244.503 95.5342 243.882 95.5342Z" fill="#FFFDF2"/>
<path d="M272.552 238.411H271.331V237.19C271.331 236.563 270.823 236.062 270.203 236.062C269.582 236.062 269.074 236.57 269.074 237.19V238.411H267.853C267.226 238.411 266.725 238.919 266.725 239.54C266.725 240.16 267.233 240.668 267.853 240.668H269.074V241.889C269.074 242.516 269.582 243.018 270.203 243.018C270.823 243.018 271.331 242.51 271.331 241.889V240.668H272.552C273.179 240.668 273.681 240.16 273.681 239.54C273.681 238.919 273.173 238.411 272.552 238.411Z" fill="#FFFDF2"/>
<path d="M56.9898 223.264H55.7688V222.043C55.7688 221.416 55.2606 220.914 54.6402 220.914C54.0198 220.914 53.5116 221.422 53.5116 222.043V223.264H52.2906C51.6636 223.264 51.162 223.772 51.162 224.392C51.162 225.013 51.6702 225.521 52.2906 225.521H53.5116V226.742C53.5116 227.369 54.0198 227.87 54.6402 227.87C55.2606 227.87 55.7688 227.362 55.7688 226.742V225.521H56.9898C57.6168 225.521 58.1184 225.013 58.1184 224.392C58.1184 223.772 57.6102 223.264 56.9898 223.264Z" fill="#FFFDF2"/>
<path d="M137.787 50.7793H136.566V49.5583C136.566 48.9313 136.058 48.4297 135.437 48.4297C134.817 48.4297 134.309 48.9379 134.309 49.5583V50.7793H133.088C132.461 50.7793 131.959 51.2875 131.959 51.9079C131.959 52.5283 132.467 53.0365 133.088 53.0365H134.309V54.2575C134.309 54.8845 134.817 55.3861 135.437 55.3861C136.058 55.3861 136.566 54.8779 136.566 54.2575V53.0365H137.787C138.414 53.0365 138.916 52.5283 138.916 51.9079C138.916 51.2875 138.407 50.7793 137.787 50.7793Z" fill="#FFFDF2"/>
<path d="M135.14 254.567H133.299V252.726C133.299 251.782 132.533 251.017 131.596 251.017C130.659 251.017 129.887 251.782 129.887 252.726V254.567H128.045C127.102 254.567 126.336 255.333 126.336 256.277C126.336 257.221 127.102 257.986 128.045 257.986H129.887V259.828C129.887 260.771 130.652 261.537 131.596 261.537C132.54 261.537 133.299 260.771 133.299 259.828V257.986H135.14C136.084 257.986 136.85 257.221 136.85 256.277C136.85 255.333 136.084 254.567 135.14 254.567Z" fill="#FFFDF2"/>
<path d="M292.22 155.983H290.379V154.142C290.379 153.198 289.613 152.433 288.676 152.433C287.739 152.433 286.967 153.198 286.967 154.142V155.983H285.125C284.182 155.983 283.416 156.749 283.416 157.686C283.416 158.623 284.182 159.396 285.125 159.396H286.967V161.237C286.967 162.181 287.732 162.94 288.676 162.94C289.62 162.94 290.379 162.174 290.379 161.237V159.396H292.22C293.164 159.396 293.923 158.63 293.923 157.686C293.923 156.742 293.158 155.983 292.22 155.983Z" fill="#FFFDF2"/>
<path d="M118.132 101.21C118.132 97.7121 115.294 94.8741 111.796 94.8741C111.367 94.8741 110.945 94.9203 110.542 94.9995C110.654 94.4781 110.714 93.9435 110.72 93.3957C110.76 88.9605 107.189 85.3305 102.754 85.2909C101.85 85.2843 100.985 85.4229 100.174 85.6935C100.279 85.1127 100.339 84.5187 100.339 83.9049C100.339 78.4401 95.91 74.0049 90.4386 74.0049C84.9672 74.0049 80.5452 78.4335 80.5452 83.9049C80.5452 84.1689 80.5584 84.4263 80.5782 84.6837C79.5288 84.1821 78.3606 83.9049 77.1198 83.9049C72.8364 83.9049 69.3384 87.2511 69.1008 91.4751H69.0876C64.6458 91.4751 61.0488 95.0721 61.0488 99.5139C61.0488 103.956 64.6458 107.553 69.0876 107.553H111.803C115.301 107.553 118.139 104.715 118.139 101.217L118.132 101.21Z" fill="white"/>
<path d="M327.293 210.822C327.293 207.324 324.455 204.486 320.957 204.486C320.528 204.486 320.105 204.533 319.703 204.612C319.815 204.09 319.874 203.556 319.881 203.008C319.921 198.573 316.35 194.943 311.915 194.903C311.011 194.897 310.146 195.035 309.334 195.306C309.44 194.725 309.499 194.131 309.499 193.517C309.499 188.052 305.071 183.617 299.599 183.617C294.128 183.617 289.706 188.046 289.706 193.517C289.706 193.781 289.719 194.039 289.739 194.296C288.689 193.794 287.521 193.517 286.28 193.517C281.997 193.517 278.499 196.863 278.261 201.087H278.248C273.813 201.087 270.209 204.684 270.209 209.126C270.209 213.568 273.806 217.165 278.248 217.165H320.963C324.461 217.165 327.299 214.327 327.299 210.829L327.293 210.822Z" fill="white"/>
<path d="M304.945 103.864C304.945 101.098 302.701 98.8545 299.936 98.8545C299.593 98.8545 299.263 98.8875 298.946 98.9535C299.032 98.5443 299.078 98.1219 299.084 97.6863C299.117 94.1751 296.293 91.3041 292.781 91.2777C292.069 91.2711 291.382 91.3833 290.742 91.5945C290.828 91.1325 290.874 90.6639 290.874 90.1821C290.874 85.8591 287.369 82.3545 283.046 82.3545C278.723 82.3545 275.219 85.8591 275.219 90.1821C275.219 90.3933 275.232 90.5979 275.245 90.8025C274.414 90.4065 273.49 90.1821 272.513 90.1821C269.127 90.1821 266.362 92.8287 266.17 96.1683H266.157C262.646 96.1683 259.801 99.0129 259.801 102.524C259.801 106.035 262.646 108.88 266.157 108.88H299.942C302.708 108.88 304.952 106.636 304.952 103.87L304.945 103.864Z" fill="white"/>
<path d="M93.072 200.56C93.072 197.795 90.828 195.551 88.0626 195.551C87.7194 195.551 87.3894 195.584 87.0726 195.65C87.1584 195.24 87.2046 194.811 87.2112 194.376C87.2442 190.865 84.4194 187.994 80.9082 187.967C80.1954 187.967 79.509 188.073 78.8688 188.284C78.9546 187.829 79.0008 187.353 79.0008 186.872C79.0008 182.549 75.4962 179.044 71.1732 179.044C66.8502 179.044 63.3456 182.549 63.3456 186.872C63.3456 187.083 63.3588 187.287 63.372 187.492C62.5404 187.096 61.6164 186.872 60.633 186.872C57.2472 186.872 54.4818 189.518 54.2904 192.858H54.2772C50.766 192.858 47.9214 195.702 47.9214 199.214C47.9214 202.725 50.766 205.569 54.2772 205.569H88.0626C90.828 205.569 93.072 203.325 93.072 200.56Z" fill="white"/>
<path d="M336.368 265.619C332.949 265.619 329.807 266.8 327.319 268.767C324.389 263.414 318.726 259.791 312.218 259.791C302.708 259.791 295.006 267.533 295.006 277.09C295.006 279.07 295.342 280.964 295.949 282.733C293.646 281.208 290.887 280.317 287.917 280.317C279.832 280.317 273.285 286.897 273.285 295.015C273.285 295.398 273.305 295.768 273.331 296.144C271.602 295.418 269.701 295.015 267.708 295.015C263.26 295.015 259.273 297.015 256.594 300.163C255.564 291.999 248.634 285.689 240.226 285.689C232.642 285.689 226.26 290.831 224.326 297.827C221.911 296.065 218.941 295.022 215.726 295.022C207.641 295.022 201.094 301.602 201.094 309.72C201.094 310.4 201.147 311.073 201.233 311.726L186.02 307.436H185.98L170.767 311.726C170.86 311.066 170.906 310.4 170.906 309.72C170.906 301.602 164.352 295.022 156.274 295.022C153.059 295.022 150.089 296.065 147.674 297.827C145.74 290.831 139.358 285.689 131.774 285.689C123.373 285.689 116.436 291.999 115.406 300.163C112.72 297.015 108.74 295.015 104.285 295.015C102.292 295.015 100.391 295.418 98.6622 296.144C98.6886 295.774 98.7084 295.398 98.7084 295.015C98.7084 286.897 92.1546 280.317 84.0762 280.317C81.1128 280.317 78.354 281.208 76.044 282.733C76.6512 280.964 76.9878 279.063 76.9878 277.09C76.9878 267.539 69.279 259.791 59.7684 259.791C53.2608 259.791 47.598 263.421 44.6742 268.767C42.186 266.794 39.0444 265.619 35.6256 265.619C27.5406 265.619 20.9934 272.199 20.9934 280.317V345.525H350.993V280.317C350.993 272.199 344.44 265.619 336.361 265.619H336.368Z" fill="white"/>
<path d="M207.542 236.311C207.542 247.855 198.184 275.773 186.64 275.773C175.097 275.773 165.738 247.855 165.738 236.311C165.738 224.768 175.097 215.409 186.64 215.409C198.184 215.409 207.542 224.768 207.542 236.311Z" fill="url(#paint0_linear_536_3084)" fill-opacity="0.2"/>
<path d="M201.325 236.701C201.325 244.812 194.752 264.421 186.647 264.421C178.542 264.421 171.968 244.812 171.968 236.701C171.968 228.589 178.542 222.022 186.647 222.022C194.752 222.022 201.325 228.596 201.325 236.701Z" fill="url(#paint1_linear_536_3084)" fill-opacity="0.5"/>
<path d="M195.86 233.612C195.86 238.707 191.735 251.023 186.64 251.023C181.545 251.023 177.42 238.707 177.42 233.612C177.42 228.517 181.552 224.392 186.64 224.392C191.729 224.392 195.86 228.517 195.86 233.612Z" fill="url(#paint2_linear_536_3084)"/>
<path d="M220.175 210.334H155.343V218.267H220.175V210.334Z" fill="#8F8F8F"/>
<path d="M153.106 208.855C153.106 208.855 130.996 209.872 131.392 234.978C131.392 234.978 111.268 219.884 120.535 191.735C124.66 179.188 139.939 167.427 153.112 165.229V208.862L153.106 208.855Z" fill="#DADADA"/>
<path d="M220.175 208.855C220.175 208.855 242.285 209.872 241.889 234.978C241.889 234.978 262.006 219.884 252.746 191.735C248.621 179.188 233.342 167.427 220.168 165.229V208.862L220.175 208.855Z" fill="#BBBBBB"/>
<path d="M187.406 59.0225V210.38H149.363C149.363 210.38 124.198 117.135 187.406 59.0225Z" fill="white"/>
<path d="M187.406 59.0225V210.38H225.448C225.448 210.38 250.614 117.135 187.406 59.0225Z" fill="#E7E7E7"/>
<path d="M161.25 92.9732C161.25 92.9732 182.938 107.586 213.555 92.9732C213.555 92.9732 203.615 71.576 187.406 57.9932C187.406 57.9932 173.123 70.4804 161.257 92.9732H161.25Z" fill="#BBBBBB"/>
<path d="M208.664 90.7813C208.664 92.1079 207.589 93.1837 206.262 93.1837C204.935 93.1837 203.86 92.1079 203.86 90.7813C203.86 89.4547 204.935 88.3789 206.262 88.3789C207.589 88.3789 208.664 89.4547 208.664 90.7813Z" fill="#E7E7E7"/>
<path d="M187.406 99.4676V57.9932C187.406 57.9932 172.589 71.3978 161.257 92.9732C161.257 92.9732 170.147 99.4676 187.406 99.4676Z" fill="#DADADA"/>
<path opacity="0.05" d="M149.357 210.38C149.357 210.38 123.082 122.145 187.399 57.9863C187.399 57.9863 137.8 123.524 165.903 172.133C184.198 203.78 229.19 188.482 229.19 188.482C229.19 188.482 227.481 200.619 225.442 210.38H149.357Z" fill="#3C2A34"/>
<path d="M202.81 87.0459C202.025 87.0459 201.286 86.5707 200.982 85.7919C197.576 76.9149 189.887 69.1995 189.808 69.1203C189.043 68.3613 189.043 67.1205 189.802 66.3549C190.561 65.5893 191.801 65.5827 192.567 66.3483C192.904 66.6849 200.923 74.7171 204.632 84.3927C205.021 85.4025 204.513 86.5311 203.51 86.9205C203.279 87.0063 203.041 87.0525 202.81 87.0525V87.0459Z" fill="#FFFDF2"/>
<path d="M249.327 210.44C249.274 210.44 249.215 210.439 249.155 210.433C248.08 210.34 247.288 209.39 247.38 208.314C249.439 184.766 233.005 178.007 232.834 177.941C231.83 177.545 231.335 176.41 231.731 175.407C232.127 174.404 233.263 173.909 234.266 174.305C234.47 174.384 239.262 176.318 243.75 181.558C247.842 186.343 252.469 194.929 251.267 208.657C251.182 209.674 250.324 210.44 249.32 210.44H249.327Z" fill="#FFFDF2"/>
<path d="M204.916 137.932C204.916 147.409 197.233 155.085 187.762 155.085C178.291 155.085 170.609 147.403 170.609 137.932C170.609 128.461 178.291 120.778 187.762 120.778C197.233 120.778 204.916 128.461 204.916 137.932Z" fill="#BEBEBE"/>
<path d="M204.889 137.398C204.889 145.707 198.157 152.439 189.848 152.439C181.538 152.439 174.806 145.707 174.806 137.398C174.806 129.088 181.538 122.356 189.848 122.356C198.157 122.356 204.889 129.088 204.889 137.398Z" fill="#969696"/>
<path d="M200.83 139.886C199.748 139.886 198.877 139.008 198.877 137.932C198.877 132.428 194.402 127.953 188.897 127.953C187.822 127.953 186.944 127.075 186.944 125.999C186.944 124.924 187.822 124.046 188.897 124.046C196.553 124.046 202.784 130.276 202.784 137.932C202.784 139.015 201.906 139.886 200.83 139.886Z" fill="#FFFDF2"/>
<path d="M201.807 144.195C201.807 145.522 200.731 146.598 199.405 146.598C198.078 146.598 197.002 145.522 197.002 144.195C197.002 142.869 198.078 141.793 199.405 141.793C200.731 141.793 201.807 142.869 201.807 144.195Z" fill="#E7E7E7"/>
<path d="M251.914 215.865C251.914 217.192 250.838 218.268 249.512 218.268C248.185 218.268 247.109 217.192 247.109 215.865C247.109 214.539 248.185 213.463 249.512 213.463C250.838 213.463 251.914 214.539 251.914 215.865Z" fill="#E7E7E7"/>
<path d="M190.343 167.058C189.643 166.101 188.515 165.48 187.234 165.48H186.436C185.155 165.48 184.02 166.107 183.327 167.064C183.327 167.064 171.394 180.746 176.859 214.987C179.875 233.909 186.838 239.546 186.838 239.546C186.838 239.546 193.801 233.909 196.817 214.987C202.276 180.746 190.349 167.058 190.349 167.058H190.343Z" fill="#BBBBBB"/>
<path d="M186.046 165.474C184.766 165.474 183.631 166.101 182.938 167.058C182.938 167.058 171.005 180.739 176.463 214.98C179.479 233.902 186.442 239.539 186.442 239.539V165.48H186.04L186.046 165.474Z" fill="#DADADA"/>
<path d="M134.157 102.332C134.157 103.546 133.174 104.53 131.959 104.53C130.745 104.53 129.761 103.546 129.761 102.332C129.761 101.117 130.745 100.141 131.959 100.141C133.174 100.141 134.157 101.124 134.157 102.332Z" fill="white"/>
<path d="M127.399 152.44C127.399 153.021 126.923 153.496 126.343 153.496C125.762 153.496 125.287 153.027 125.287 152.44C125.287 151.852 125.762 151.384 126.343 151.384C126.923 151.384 127.399 151.852 127.399 152.44Z" fill="white"/>
<path d="M72.5988 127.286C72.5988 127.867 72.1236 128.342 71.5428 128.342C70.962 128.342 70.4868 127.874 70.4868 127.286C70.4868 126.699 70.962 126.23 71.5428 126.23C72.1236 126.23 72.5988 126.699 72.5988 127.286Z" fill="white"/>
<path d="M112.225 244.476C112.225 245.057 111.75 245.532 111.169 245.532C110.588 245.532 110.113 245.063 110.113 244.476C110.113 243.889 110.588 243.42 111.169 243.42C111.75 243.42 112.225 243.889 112.225 244.476Z" fill="white"/>
<path d="M145.1 237.704C145.1 238.285 144.625 238.76 144.044 238.76C143.463 238.76 142.988 238.292 142.988 237.704C142.988 237.117 143.463 236.648 144.044 236.648C144.625 236.648 145.1 237.117 145.1 237.704Z" fill="white"/>
<path d="M256.244 265.26C256.244 265.841 255.769 266.316 255.188 266.316C254.607 266.316 254.132 265.848 254.132 265.26C254.132 264.673 254.607 264.204 255.188 264.204C255.769 264.204 256.244 264.673 256.244 265.26Z" fill="white"/>
<path d="M257.293 170.682C257.293 171.263 256.818 171.738 256.237 171.738C255.656 171.738 255.181 171.269 255.181 170.682C255.181 170.095 255.656 169.626 256.237 169.626C256.818 169.626 257.293 170.095 257.293 170.682Z" fill="white"/>
<path d="M221.231 69.2533C221.231 69.8341 220.756 70.3093 220.175 70.3093C219.594 70.3093 219.119 69.8407 219.119 69.2533C219.119 68.6659 219.594 68.1973 220.175 68.1973C220.756 68.1973 221.231 68.6659 221.231 69.2533Z" fill="white"/>
<path d="M284.479 68.2035C284.479 68.7843 284.003 69.2595 283.423 69.2595C282.842 69.2595 282.367 68.7909 282.367 68.2035C282.367 67.6161 282.842 67.1475 283.423 67.1475C284.003 67.1475 284.479 67.6161 284.479 68.2035Z" fill="white"/>
<path d="M294.979 126.238C294.979 126.818 294.504 127.294 293.923 127.294C293.342 127.294 292.867 126.825 292.867 126.238C292.867 125.65 293.342 125.182 293.923 125.182C294.504 125.182 294.979 125.65 294.979 126.238Z" fill="white"/>
<path d="M256.33 138.83C256.33 140.044 255.346 141.027 254.132 141.027C252.917 141.027 251.934 140.044 251.934 138.83C251.934 137.615 252.917 136.632 254.132 136.632C255.346 136.632 256.33 137.615 256.33 138.83Z" fill="white"/>
<path d="M103.183 168.484C103.183 169.699 102.2 170.682 100.986 170.682C99.7711 170.682 98.7877 169.699 98.7877 168.484C98.7877 167.27 99.7711 166.293 100.986 166.293C102.2 166.293 103.183 167.276 103.183 168.484Z" fill="white"/>
<path d="M231.599 247.789C232.813 247.789 233.797 246.805 233.797 245.591C233.797 244.378 232.813 243.394 231.599 243.394C230.386 243.394 229.402 244.378 229.402 245.591C229.402 246.805 230.386 247.789 231.599 247.789Z" fill="white"/>
<path d="M94.8408 224.392C94.8408 225.607 93.8574 226.583 92.643 226.583C91.4286 226.583 90.4452 225.6 90.4452 224.392C90.4452 223.184 91.4286 222.194 92.643 222.194C93.8574 222.194 94.8408 223.178 94.8408 224.392Z" fill="white"/>
</g>
<defs>
<linearGradient id="paint0_linear_536_3084" x1="165.738" y1="164.43" x2="243.527" y2="173.949" gradientUnits="userSpaceOnUse">
<stop stop-color="#F9D423"/>
<stop offset="1" stop-color="#F83600"/>
</linearGradient>
<linearGradient id="paint1_linear_536_3084" x1="171.968" y1="186.215" x2="226.595" y2="192.899" gradientUnits="userSpaceOnUse">
<stop stop-color="#F9D423"/>
<stop offset="1" stop-color="#F83600"/>
</linearGradient>
<linearGradient id="paint2_linear_536_3084" x1="177.42" y1="201.901" x2="211.734" y2="206.099" gradientUnits="userSpaceOnUse">
<stop stop-color="#F9D423"/>
<stop offset="1" stop-color="#F83600"/>
</linearGradient>
</defs>
</svg>
