<svg width="28" height="28" viewBox="0 0 28 28" fill="none" xmlns="http://www.w3.org/2000/svg">
<g id="Frame">
<g id="&#240;&#159;&#166;&#134; icon &#34;person&#34;">
<path id="Vector" d="M10.0892 15.477L10.1282 14.9886C7.84318 14.3298 6.17229 12.2228 6.17229 9.72618C6.17229 6.70177 8.62407 4.25 11.6485 4.25C14.6729 4.25 17.1247 6.70177 17.1247 9.72618C17.1247 12.2228 15.4537 14.3298 13.1687 14.9887L13.2077 15.477C15.0532 15.7019 16.6148 16.3516 17.7851 17.5049C19.2732 18.9716 20.047 21.1731 20.047 24.1009C20.047 24.3771 19.8229 24.6011 19.5467 24.601H19.5466C19.2702 24.601 19.0463 24.3771 19.0463 24.1007C19.0463 21.3415 18.3192 19.4363 17.0827 18.2177L17.0827 18.2176C15.8446 16.9975 14.0161 16.3871 11.6484 16.3871C9.28072 16.3871 7.45226 16.9975 6.21424 18.2176L6.38972 18.3957L6.21424 18.2176C4.9777 19.4363 4.25065 21.3415 4.25065 24.1007C4.25065 24.3771 4.02668 24.601 3.75033 24.601C3.47399 24.601 3.25 24.3771 3.25 24.1007C3.25 21.1731 4.0237 18.9716 5.51184 17.5049C6.6821 16.3516 8.24368 15.7019 10.0892 15.477ZM11.6485 5.25065C9.17671 5.25065 7.17295 7.25442 7.17295 9.72618C7.17295 12.1979 9.17671 14.2017 11.6485 14.2017C14.1202 14.2017 16.124 12.1979 16.124 9.72618C16.124 7.25442 14.1202 5.25065 11.6485 5.25065Z" fill="black" stroke="black" stroke-width="0.5"/>
</g>
</g>
</svg>
