<svg width="33" height="32" viewBox="0 0 33 32" fill="none" xmlns="http://www.w3.org/2000/svg">
<g id="Frame">
<g id="Group 1000003210">
<path id="Vector" d="M16.6517 3.9209C16.8839 3.92047 17.1079 4.007 17.2795 4.16344C17.4511 4.31989 17.5579 4.53491 17.5788 4.76616C17.5998 4.99742 17.5335 5.22815 17.3928 5.41292C17.2522 5.59769 17.0475 5.72311 16.819 5.76448L16.6517 5.77935H7.35945C7.14197 5.77928 6.93134 5.85549 6.76427 5.99472C6.59719 6.13396 6.48424 6.32738 6.44509 6.54131L6.43023 6.70857V25.2931C6.43016 25.5106 6.50637 25.7212 6.6456 25.8883C6.78483 26.0553 6.97826 26.1683 7.19219 26.2074L7.35945 26.2223H25.944C26.1614 26.2224 26.3721 26.1462 26.5391 26.0069C26.7062 25.8677 26.8192 25.6743 26.8583 25.4603L26.8732 25.2931V16.0008C26.8727 15.7686 26.9593 15.5447 27.1157 15.3731C27.2722 15.2015 27.4872 15.0947 27.7184 15.0737C27.9497 15.0527 28.1804 15.1191 28.3652 15.2597C28.55 15.4004 28.6754 15.6051 28.7168 15.8336L28.7316 16.0008V25.2931C28.7316 25.9861 28.4734 26.6542 28.0075 27.1672C27.5416 27.6802 26.9014 28.0012 26.2116 28.0677L25.944 28.0807H7.35945C6.66647 28.0807 5.99834 27.8226 5.48536 27.3567C4.97237 26.8908 4.65131 26.2505 4.58479 25.5607L4.57178 25.2931V6.70857C4.57181 6.01559 4.82995 5.34746 5.29586 4.83448C5.76178 4.32149 6.40205 4.00044 7.09184 3.93391L7.35945 3.9209H16.6517Z" fill="#9B9B9B"/>
<path id="Vector_2" d="M28.3971 4.8497C28.2434 4.69576 28.0405 4.60066 27.8238 4.58097C27.6072 4.56127 27.3904 4.61822 27.2115 4.74191L27.0832 4.8497L18.8298 13.1105C18.667 13.2746 18.5712 13.4935 18.5612 13.7245C18.5511 13.9555 18.6275 14.1819 18.7754 14.3595C18.9234 14.5372 19.1322 14.6533 19.3612 14.6853C19.5901 14.7172 19.8228 14.6626 20.0137 14.5322L20.1438 14.4244L28.3971 6.16362C28.5713 5.98937 28.6692 5.75306 28.6692 5.50666C28.6692 5.26026 28.5713 5.02395 28.3971 4.8497Z" fill="#9B9B9B"/>
<path id="Vector_3" d="M21.7976 4.90164C21.7975 4.68415 21.8738 4.47353 22.013 4.30645C22.1522 4.13937 22.3456 4.02643 22.5596 3.98728L22.7268 3.97241H29.5696V10.8152C29.5701 11.0474 29.4835 11.2714 29.3271 11.443C29.1707 11.6146 28.9556 11.7214 28.7244 11.7424C28.4931 11.7633 28.2624 11.697 28.0776 11.5563C27.8929 11.4157 27.7674 11.211 27.7261 10.9825L27.7112 10.8152V5.83086H22.7268C22.5093 5.83094 22.2987 5.75472 22.1316 5.61549C21.9646 5.47626 21.8516 5.28283 21.8125 5.0689L21.7976 4.90164Z" fill="#9B9B9B"/>
</g>
</g>
</svg>
