<svg width="25" height="25" viewBox="0 0 25 25" fill="none" xmlns="http://www.w3.org/2000/svg">
<g id="Frame">
<g id="&#240;&#159;&#166;&#134; icon &#34;key-skeleton-alt&#34;">
<path id="Vector" d="M19.3281 7.95313L20.5677 6.71354C20.9219 6.35938 20.9219 5.82813 20.5677 5.47396C20.2135 5.11979 19.6823 5.11979 19.3281 5.47396L10.0313 14.7708C9.32292 14.3281 8.4375 14.0625 7.55208 14.0625C5.07292 14.0625 3.125 16.0104 3.125 18.4896C3.125 20.9688 5.07292 22.9167 7.55208 22.9167C10.0312 22.9167 11.9792 20.9688 11.9792 18.4896C11.9792 17.6042 11.7135 16.7188 11.2708 16.0104L15.6094 11.6719L16.849 12.9115C17.2031 13.2656 17.7344 13.2656 18.0885 12.9115C18.4427 12.5573 18.4427 12.026 18.0885 11.6719L16.849 10.4323L18.0885 9.19271L19.3281 10.4323C19.6823 10.7865 20.2135 10.7865 20.5677 10.4323C20.9219 10.0781 20.9219 9.54688 20.5677 9.19271L19.3281 7.95313ZM7.55208 21.1458C6.04688 21.1458 4.89583 19.9948 4.89583 18.4896C4.89583 16.9844 6.04688 15.8333 7.55208 15.8333C9.05729 15.8333 10.2083 16.9844 10.2083 18.4896C10.2083 19.9948 9.05729 21.1458 7.55208 21.1458Z" fill="black"/>
</g>
</g>
</svg>
