<svg width="23" height="22" viewBox="0 0 23 22" fill="none" xmlns="http://www.w3.org/2000/svg">
<g id="Search">
<path id="Vector" d="M14.7411 12.8333H14.0063L13.7458 12.5858C14.6574 11.5408 15.2061 10.1842 15.2061 8.70833C15.2061 5.4175 12.4994 2.75 9.1602 2.75C5.82098 2.75 3.11426 5.4175 3.11426 8.70833C3.11426 11.9992 5.82098 14.6667 9.1602 14.6667C10.6577 14.6667 12.0343 14.1258 13.0947 13.2275L13.3459 13.4842V14.2083L17.9966 18.7825L19.3825 17.4167L14.7411 12.8333ZM9.1602 12.8333C6.84414 12.8333 4.97455 10.9908 4.97455 8.70833C4.97455 6.42583 6.84414 4.58333 9.1602 4.58333C11.4763 4.58333 13.3459 6.42583 13.3459 8.70833C13.3459 10.9908 11.4763 12.8333 9.1602 12.8333Z" fill="black"/>
</g>
</svg>
