<svg width="21" height="21" viewBox="0 0 21 21" fill="none" xmlns="http://www.w3.org/2000/svg">
<path id="Vector" d="M12.1967 14.6959C12.1119 14.6111 11.9725 14.6111 11.8877 14.6959L8.71035 17.8732C7.23926 19.3443 4.75645 19.5002 3.13223 17.8732C1.50527 16.2463 1.66113 13.7662 3.13223 12.2951L6.30957 9.11777C6.39434 9.03301 6.39434 8.89355 6.30957 8.80879L5.22129 7.72051C5.13652 7.63574 4.99707 7.63574 4.9123 7.72051L1.73496 10.8979C-0.57832 13.2111 -0.57832 16.9545 1.73496 19.265C4.04824 21.5756 7.7916 21.5783 10.1021 19.265L13.2795 16.0877C13.3643 16.0029 13.3643 15.8635 13.2795 15.7787L12.1967 14.6959ZM19.2678 1.73496C16.9545 -0.57832 13.2111 -0.57832 10.9006 1.73496L7.72051 4.9123C7.63574 4.99707 7.63574 5.13652 7.72051 5.22129L8.80606 6.30684C8.89082 6.3916 9.03027 6.3916 9.11504 6.30684L12.2924 3.12949C13.7635 1.6584 16.2463 1.50254 17.8705 3.12949C19.4975 4.75644 19.3416 7.23652 17.8705 8.70762L14.6932 11.885C14.6084 11.9697 14.6084 12.1092 14.6932 12.1939L15.7814 13.2822C15.8662 13.367 16.0057 13.367 16.0904 13.2822L19.2678 10.1049C21.5783 7.7916 21.5783 4.04824 19.2678 1.73496Z" fill="black"/>
</svg>
