<svg width="39" height="36" viewBox="0 0 39 36" fill="none" xmlns="http://www.w3.org/2000/svg">
<path d="M19.4039 0.0905734C18.294 0.107609 17.2123 0.42173 16.2859 0.996019L16.0822 1.1218C15.3103 1.59751 14.3968 1.82932 13.4748 1.78341L13.195 1.76885C12.062 1.71011 10.9354 1.96266 9.95297 2.49562C8.97052 3.02857 8.17486 3.81881 7.66335 4.76964L7.54439 4.99065C7.13142 5.7625 6.46431 6.38874 5.6421 6.77639L5.40667 6.88797C4.39393 7.36831 3.55225 8.1153 2.98456 9.03758C2.41687 9.95986 2.14777 11.0175 2.21019 12.081L2.22559 12.3439C2.27451 13.2096 2.0277 14.0673 1.52112 14.7922L1.38714 14.9833C0.757525 15.8783 0.421875 16.9273 0.421875 17.9999C0.421875 19.0726 0.757525 20.1215 1.38714 21.0166L1.52131 21.2074C2.02764 21.9321 2.27431 22.7897 2.2254 23.6552L2.21009 23.9178C2.1477 24.9813 2.4168 26.0389 2.98449 26.9612C3.55218 27.8834 4.39385 28.6304 5.40657 29.1107L5.6421 29.2224C6.46425 29.6101 7.1313 30.2364 7.5442 31.0082L7.66325 31.2292C8.17483 32.1799 8.9705 32.9701 9.95293 33.5031C10.9354 34.036 12.062 34.2886 13.1949 34.2299L13.4746 34.2154C14.3966 34.1698 15.31 34.4016 16.082 34.8771L16.2855 35.0029C17.2389 35.594 18.3564 35.9092 19.499 35.9092C20.6415 35.9092 21.759 35.594 22.7124 35.0029L22.9162 34.8771C23.6882 34.4017 24.6015 34.17 25.5235 34.2156L25.8033 34.2299C26.9362 34.2885 28.0627 34.0359 29.0451 33.503C30.0276 32.9701 30.8233 32.18 31.3349 31.2293L31.4539 31.0082C31.8668 30.2364 32.5339 29.6102 33.356 29.2226L33.5915 29.1108C34.6043 28.6305 35.4459 27.8835 36.0136 26.9612C36.5813 26.0389 36.8504 24.9813 36.788 23.9178L36.7727 23.6549C36.724 22.7893 36.9709 21.9318 37.4775 21.2072L37.6114 21.0161C38.2411 20.121 38.5767 19.072 38.5767 17.9994C38.5767 16.9268 38.2411 15.8778 37.6114 14.9827L37.4775 14.7914C36.971 14.0667 36.7241 13.2091 36.7729 12.3436L36.7882 12.0812C36.8506 11.0177 36.5815 9.96007 36.0138 9.03781C35.4461 8.11555 34.6044 7.36857 33.5917 6.88824L33.3563 6.77639C32.5341 6.38878 31.8669 5.76257 31.4539 4.99074L31.335 4.76973C30.8235 3.81893 30.0278 3.02873 29.0454 2.49578C28.0629 1.96283 26.9363 1.71026 25.8034 1.76894L25.5237 1.78332C24.6017 1.82925 23.6882 1.59751 22.9163 1.12189L22.7126 0.996109C21.7321 0.388202 20.5788 0.0725677 19.4039 0.0905734ZM19.5701 1.52807C20.3889 1.54062 21.187 1.77233 21.8704 2.19597L22.0738 2.32175C23.1204 2.96622 24.3587 3.28034 25.6085 3.21839L25.8882 3.20384C26.724 3.16075 27.555 3.3472 28.2798 3.7404C29.0045 4.1336 29.5915 4.7165 29.969 5.41786L30.0879 5.63914C30.6477 6.68528 31.5519 7.53409 32.6663 8.05962L32.9018 8.17121C33.649 8.52553 34.27 9.07661 34.6889 9.75703C35.1077 10.4375 35.3063 11.2177 35.2602 12.0024L35.2449 12.2649C35.1789 13.4382 35.5135 14.6006 36.2 15.5829L36.334 15.774C36.7985 16.4343 37.0462 17.2082 37.0462 17.9995C37.0462 18.7908 36.7985 19.5647 36.334 20.225L36.2 20.4161C35.5135 21.3984 35.1789 22.5607 35.2449 23.7339L35.2602 23.9967C35.3062 24.7814 35.1077 25.5616 34.6888 26.242C34.2699 26.9223 33.649 27.4734 32.9018 27.8277L32.6664 27.9394C31.5519 28.4649 30.6477 29.3138 30.0879 30.36L29.9689 30.5811C29.5915 31.2825 29.0045 31.8655 28.2798 32.2587C27.5551 32.6519 26.724 32.8383 25.8882 32.7951L25.6084 32.7806C24.3587 32.7185 23.1205 33.0327 22.0742 33.6772L21.8707 33.803C21.1673 34.2391 20.3429 34.4716 19.5 34.4716C18.657 34.4716 17.8326 34.2391 17.1292 33.803L16.9258 33.6772C15.969 33.0879 14.8498 32.7735 13.7055 32.7723C13.6007 32.7723 13.4961 32.775 13.3913 32.7806L13.1116 32.795C12.2758 32.8382 11.4447 32.6517 10.72 32.2585C9.99523 31.8653 9.40826 31.2824 9.03085 30.5809L8.91189 30.3599C8.35211 29.3138 7.44793 28.4649 6.33355 27.9394L6.09803 27.8276C5.35081 27.4733 4.72978 26.9223 4.31089 26.2419C3.892 25.5615 3.69341 24.7812 3.73943 23.9966L3.75474 23.734C3.82073 22.5609 3.48612 21.3985 2.79962 20.4163L2.66564 20.225C2.20108 19.5647 1.95342 18.7908 1.95342 17.9995C1.95342 17.2082 2.20108 16.4343 2.66564 15.774L2.79962 15.5829C3.48614 14.6006 3.82075 13.4383 3.75474 12.2651L3.73943 12.0022C3.69342 11.2176 3.89198 10.4374 4.31083 9.75701C4.72969 9.07664 5.35067 8.5256 6.09784 8.1713L6.33327 8.05962C7.4477 7.53408 8.35192 6.68519 8.9117 5.63896L9.03076 5.41786C9.40832 4.71658 9.99531 4.13373 10.72 3.74055C11.4447 3.34736 12.2757 3.16086 13.1114 3.20384L13.3913 3.21839C14.641 3.28038 15.8791 2.96626 16.9254 2.32175L17.129 2.19597C17.8524 1.74753 18.7033 1.51473 19.5701 1.52807ZM22.7322 14.9127C22.367 14.9127 21.9881 15.0493 21.9881 15.354V20.595C21.9881 20.8984 22.3525 21.0363 22.7059 21.0363C23.0592 21.0363 23.4236 20.8982 23.4236 20.5952V17.9642L25.0224 20.6664C25.2109 20.9925 25.5455 21.0363 25.8387 21.0363C26.192 21.0363 26.5818 20.8984 26.5818 20.5953V15.346C26.5818 15.0265 26.2025 14.913 25.8641 14.913C25.5257 14.913 25.1463 15.0265 25.1463 15.346V17.9694L23.7959 15.5807C23.4543 14.9646 23.2483 14.9127 22.7322 14.9127ZM10.3131 14.913C9.88912 14.913 9.3771 15.1615 9.3771 15.4702C9.37734 15.5113 9.38411 15.5522 9.3972 15.5915L11.1467 20.6253C11.2605 20.9653 11.7304 21.086 12.0978 21.086C12.5067 21.086 12.9542 20.9422 13.0326 20.6215L13.4431 18.8653L13.8533 20.6218C13.9313 20.9423 14.3789 21.086 14.788 21.086C15.2635 21.086 15.6367 20.9055 15.7386 20.6263L17.4885 15.5916C17.5017 15.5523 17.5084 15.5114 17.5086 15.4702C17.5086 15.1619 16.9966 14.913 16.5726 14.913C16.313 14.913 16.1406 15.0098 16.0874 15.1847L14.8021 19.2559L14.1491 16.632C14.0883 16.3753 13.7404 16.2584 13.4431 16.2584C13.1456 16.2584 12.7976 16.3752 12.7369 16.6314L12.0836 19.2559L10.7985 15.185C10.7452 15.0097 10.5728 14.913 10.3131 14.913ZM19.5477 14.913C19.2093 14.913 18.8299 15.0265 18.8299 15.346V20.5953C18.8299 20.8984 19.1943 21.0363 19.5477 21.0363C19.901 21.0363 20.2654 20.8982 20.2654 20.5952V15.346C20.2654 15.0265 19.8861 14.913 19.5477 14.913ZM28.8976 14.9134C28.4851 14.9134 28.2078 15.134 28.2078 15.4616C28.2078 15.9537 28.2392 16.5626 28.2696 17.1515C28.2999 17.7405 28.331 18.3474 28.331 18.8372C28.331 19.0888 28.5483 19.2452 28.8976 19.2452C29.1132 19.2452 29.4551 19.1345 29.4551 18.8373C29.4551 18.3473 29.4867 17.7394 29.5169 17.1516C29.547 16.5638 29.5785 15.9537 29.5785 15.4616C29.5785 15.1388 29.2985 14.9134 28.8976 14.9134ZM28.9064 19.7249C28.8109 19.724 28.7162 19.7409 28.6279 19.7748C28.5395 19.8086 28.4592 19.8587 28.3917 19.922C28.3242 19.9854 28.2708 20.0608 28.2348 20.1438C28.1987 20.2267 28.1807 20.3156 28.1817 20.4052C28.1818 20.5857 28.2582 20.7587 28.3941 20.8863C28.5299 21.0139 28.7142 21.0857 28.9064 21.086C29.096 21.0804 29.276 21.0066 29.4093 20.8799C29.5425 20.7532 29.6188 20.5833 29.6224 20.4052C29.621 20.2266 29.5454 20.0555 29.4117 19.9285C29.2779 19.8014 29.0966 19.7284 28.9064 19.7249Z" fill="#F83600"/>
</svg>
