<svg width="42" height="36" viewBox="0 0 42 36" fill="none" xmlns="http://www.w3.org/2000/svg">
<g id="&#240;&#159;&#166;&#134; icon &#34;video&#34;">
<g id="Group">
<path id="Vector" d="M22.0069 33.9978H9.99895C3.99499 33.9978 2 30.0078 2 25.9989V10.0009C2 3.99694 3.99499 2.00195 9.99895 2.00195H22.0069C28.0108 2.00195 30.0058 3.99694 30.0058 10.0009V25.9989C30.0058 32.0028 27.9918 33.9978 22.0069 33.9978Z" stroke="url(#paint0_linear_572_21457)" stroke-width="2.3" stroke-linecap="round" stroke-linejoin="round"/>
<path id="Vector_2" d="M35.2876 27.6894L30.0056 23.9844V11.9955L35.2876 8.29051C37.8716 6.48552 39.9996 7.58752 39.9996 10.7605V25.2384C39.9996 28.4114 37.8716 29.5134 35.2876 27.6894Z" stroke="url(#paint1_linear_572_21457)" stroke-width="2.3" stroke-linecap="round" stroke-linejoin="round"/>
<path id="Vector_3" d="M20.0497 16.0999C21.6236 16.0999 22.8997 14.8238 22.8997 13.2499C22.8997 11.6759 21.6236 10.3999 20.0497 10.3999C18.4757 10.3999 17.1997 11.6759 17.1997 13.2499C17.1997 14.8238 18.4757 16.0999 20.0497 16.0999Z" stroke="url(#paint2_linear_572_21457)" stroke-width="2.3" stroke-linecap="round" stroke-linejoin="round"/>
</g>
</g>
<defs>
<linearGradient id="paint0_linear_572_21457" x1="2" y1="-25.0197" x2="53.6573" y2="-17.0299" gradientUnits="userSpaceOnUse">
<stop stop-color="#F9D423"/>
<stop offset="1" stop-color="#F83600"/>
</linearGradient>
<linearGradient id="paint1_linear_572_21457" x1="30.0056" y1="-10.4363" x2="48.7499" y2="-8.87093" gradientUnits="userSpaceOnUse">
<stop stop-color="#F9D423"/>
<stop offset="1" stop-color="#F83600"/>
</linearGradient>
<linearGradient id="paint2_linear_572_21457" x1="17.1997" y1="5.58607" x2="27.639" y2="7.43076" gradientUnits="userSpaceOnUse">
<stop stop-color="#F9D423"/>
<stop offset="1" stop-color="#F83600"/>
</linearGradient>
</defs>
</svg>
