<svg width="22" height="22" viewBox="0 0 22 22" fill="none" xmlns="http://www.w3.org/2000/svg">
<g id="&#240;&#159;&#166;&#134; icon &#34;dashboard customize&#34;">
<path id="Vector" d="M0 4.95419C0 2.28279 2.1656 0.117188 4.837 0.117188C7.5084 0.117188 9.674 2.28279 9.674 4.95419C9.674 7.62559 7.5084 9.79119 4.837 9.79119C2.1656 9.79119 0 7.62559 0 4.95419ZM12.0925 4.95419C12.0925 2.28279 14.2581 0.117188 16.9295 0.117188C19.6009 0.117188 21.7665 2.28279 21.7665 4.95419C21.7665 7.62559 19.6009 9.79119 16.9295 9.79119C14.2581 9.79119 12.0925 7.62559 12.0925 4.95419ZM0 17.0467C0 14.3753 2.1656 12.2097 4.837 12.2097C7.5084 12.2097 9.674 14.3753 9.674 17.0467C9.674 19.7181 7.5084 21.8837 4.837 21.8837C2.1656 21.8837 0 19.7181 0 17.0467ZM18.1387 13.4189C18.1387 12.7511 17.5973 12.2097 16.9295 12.2097C16.2616 12.2097 15.7202 12.7511 15.7202 13.4189V15.8374H13.3018C12.6339 15.8374 12.0925 16.3788 12.0925 17.0467C12.0925 17.7145 12.6339 18.2559 13.3017 18.2559H15.7202V20.6744C15.7202 21.3423 16.2616 21.8837 16.9295 21.8837C17.5973 21.8837 18.1387 21.3423 18.1387 20.6744V18.2559H20.5572C21.2251 18.2559 21.7665 17.7145 21.7665 17.0467C21.7665 16.3788 21.2251 15.8374 20.5572 15.8374H18.1387V13.4189Z" fill="white"/>
</g>
</svg>
