<svg width="24" height="22" viewBox="0 0 24 22" fill="none" xmlns="http://www.w3.org/2000/svg">
<g id="&#240;&#159;&#166;&#134; icon &#34;Wallet&#34;">
<path id="Vector" d="M21.6188 5.34277H3.75C3.33562 5.34277 3 5.00715 3 4.59277C3 4.1784 3.33562 3.84277 3.75 3.84277H21.75C22.1644 3.84277 22.5 3.50715 22.5 3.09277C22.5 1.85012 21.4927 0.842773 20.25 0.842773H3C1.34297 0.842773 0 2.18574 0 3.84277V18.8428C0 20.4998 1.34297 21.8428 3 21.8428H21.6188C22.9322 21.8428 24 20.8336 24 19.5928V7.59277C24 6.35199 22.9322 5.34277 21.6188 5.34277ZM19.5 15.0928C18.6717 15.0928 18 14.4211 18 13.5928C18 12.7645 18.6717 12.0928 19.5 12.0928C20.3283 12.0928 21 12.7645 21 13.5928C21 14.4211 20.3283 15.0928 19.5 15.0928Z" fill="black"/>
</g>
</svg>
