<svg width="24" height="24" viewBox="0 0 24 24" fill="none" xmlns="http://www.w3.org/2000/svg">
<g id="&#240;&#159;&#166;&#134; icon &#34;Twitter&#34;">
<path id="Vector" d="M12 24C18.6274 24 24 18.6274 24 12C24 5.37258 18.6274 0 12 0C5.37258 0 0 5.37258 0 12C0 18.6274 5.37258 24 12 24Z" fill="#1DA1F2"/>
<path id="Vector_2" d="M18.2345 8.31565C17.7939 8.51018 17.3228 8.64143 16.8259 8.70237C17.3322 8.39768 17.7212 7.91721 17.9041 7.34534C17.4306 7.6219 16.9033 7.82346 16.3455 7.93596C15.8978 7.45784 15.2626 7.15784 14.5548 7.15784C13.2001 7.15784 12.1009 8.25706 12.1009 9.6094C12.1009 9.80393 12.1244 9.99143 12.1642 10.1696C10.1251 10.0735 8.31577 9.09377 7.1064 7.61252C6.89312 7.97346 6.77358 8.39065 6.77358 8.84768C6.77358 9.70081 7.20718 10.4508 7.86577 10.8914C7.46265 10.8774 7.0853 10.7672 6.75483 10.5844V10.6149C6.75483 11.8055 7.59858 12.7969 8.72358 13.0219C8.51733 13.0781 8.29937 13.1063 8.07671 13.1063C7.91968 13.1063 7.76968 13.0922 7.61968 13.0641C7.93374 14.0391 8.83843 14.7492 9.91655 14.768C9.07983 15.4266 8.01577 15.818 6.87437 15.818C6.67983 15.818 6.4853 15.8063 6.29077 15.7852C7.38296 16.4813 8.66968 16.8867 10.0595 16.8867C14.5712 16.8867 17.0392 13.1485 17.0392 9.91174C17.0392 9.80862 17.0392 9.70315 17.0322 9.59768C17.5103 9.25315 17.9298 8.81956 18.258 8.32737L18.2345 8.31565Z" fill="white"/>
</g>
</svg>
