<svg width="13" height="13" viewBox="0 0 13 13" fill="none" xmlns="http://www.w3.org/2000/svg">
<g id="&#240;&#159;&#166;&#134; icon &#34;plus&#34;">
<path id="Vector" d="M11.6071 5.16071H7.58929V1.14286C7.58929 0.649833 7.18945 0.25 6.69643 0.25H5.80357C5.31055 0.25 4.91071 0.649833 4.91071 1.14286V5.16071H0.892857C0.399833 5.16071 0 5.56055 0 6.05357V6.94643C0 7.43945 0.399833 7.83929 0.892857 7.83929H4.91071V11.8571C4.91071 12.3502 5.31055 12.75 5.80357 12.75H6.69643C7.18945 12.75 7.58929 12.3502 7.58929 11.8571V7.83929H11.6071C12.1002 7.83929 12.5 7.43945 12.5 6.94643V6.05357C12.5 5.56055 12.1002 5.16071 11.6071 5.16071Z" fill="white"/>
</g>
</svg>
