<svg width="41" height="34" viewBox="0 0 41 34" fill="none" xmlns="http://www.w3.org/2000/svg">
<g id="&#240;&#159;&#166;&#134; icon &#34;camera&#34;">
<path id="Vector" d="M5.47598 34H35.524C39.1513 34 41 32.1458 41 28.473V9.80602C41 6.13326 39.1513 4.29684 35.524 4.29684H31.4431C30.0829 4.29684 29.6644 4.01158 28.8796 3.12011L27.467 1.51548C26.6125 0.534927 25.7231 0 23.9094 0H16.9685C15.1722 0 14.2828 0.534927 13.4109 1.51548L11.9983 3.12011C11.231 3.9937 10.795 4.29684 9.43471 4.29684H5.47598C1.84859 4.29684 0 6.13326 0 9.80602V28.473C0 32.1458 1.84859 34 5.47598 34ZM5.52829 31.1295C3.8018 31.1295 2.80779 30.1845 2.80779 28.3303V9.96645C2.80779 8.11223 3.8018 7.16728 5.52829 7.16728H10.1323C11.7018 7.16728 12.5389 6.86422 13.4109 5.86579L14.7886 4.29684C15.7827 3.15578 16.2884 2.87052 17.8405 2.87052H23.0375C24.5895 2.87052 25.0953 3.15578 26.0893 4.29684L27.467 5.86579C28.339 6.86422 29.1761 7.16728 30.7457 7.16728H35.4719C37.1983 7.16728 38.1924 8.11223 38.1924 9.96645V28.3303C38.1924 30.1845 37.1983 31.1295 35.4719 31.1295H5.52829ZM20.4913 28.2947C25.7754 28.2947 30.0132 23.9622 30.0132 18.5422C30.0132 13.1222 25.7929 8.78979 20.4913 8.78979C15.2246 8.78979 10.9869 13.1222 10.9869 18.5422C10.9869 23.9622 15.2246 28.2947 20.4913 28.2947ZM33.0303 14.1919C34.2161 14.1919 35.1926 13.2113 35.1926 11.999C35.1926 10.7688 34.2161 9.78814 33.0303 9.78814C31.8442 9.78814 30.8677 10.7688 30.8677 11.999C30.8677 13.2113 31.8442 14.1919 33.0303 14.1919ZM20.4913 25.5847C16.707 25.5847 13.6202 22.4468 13.6202 18.5422C13.6202 14.6376 16.6895 11.4997 20.4913 11.4997C24.2931 11.4997 27.3798 14.6376 27.3798 18.5422C27.3798 22.4468 24.2931 25.5847 20.4913 25.5847Z" fill="url(#paint0_linear_572_21454)"/>
</g>
<defs>
<linearGradient id="paint0_linear_572_21454" x1="2.07363e-07" y1="-28.7143" x2="74.0712" y2="-12.9306" gradientUnits="userSpaceOnUse">
<stop stop-color="#F9D423"/>
<stop offset="1" stop-color="#F83600"/>
</linearGradient>
</defs>
</svg>
